# xmcd
#
# Track frame offsets: 
#        150
#        15420
#        27923
#        36991
#        48189
#        62102
#        71852
#
# Disc length: 1140 seconds
#
# Revision: 0
# Processed by: cddbd v1.5.2PL0 Copyright (c) Steve Scherf et al.
# Submitted via: ExactAudioCopyFreeDBPlugin 1.0
#
DISCID=59047207
DTITLE=Highway Patrol - Cowbilly Boogie
DYEAR=2015
DGENRE=Country
TTITLE0=Falling Down Qnd Feeling Low
TTITLE1=Rockabilly Blues
TTITLE2=Hey Get Rockin'
TTITLE3=Cherokee Boogie
TTITLE4=Cash and Twang - That's All What's Left For Me (bonus, demo)
TTITLE5=Cash and Twang - Blue Days Black Nights (bonus, demo)
TTITLE6=Cash and Twang - That's What I Get (bonus, demo)
EXTD=
EXTT0=
EXTT1=
EXTT2=
EXTT3=
EXTT4=
EXTT5=
EXTT6=
PLAYORDER=
